<?xml version="1.0" standalone="no"?><!DOCTYPE svg PUBLIC "-//W3C//DTD SVG 1.1//EN" "http://www.w3.org/Graphics/SVG/1.1/DTD/svg11.dtd"><svg t="1600396384420" class="icon" viewBox="0 0 1024 1024" version="1.1" xmlns="http://www.w3.org/2000/svg" p-id="2918" xmlns:xlink="http://www.w3.org/1999/xlink" width="200" height="200"><defs><style type="text/css"></style></defs><path d="M893.269333 790.300444 349.582222 790.300444 252.643556 337.521778l0 0L193.365333 60.814222l41.699556-8.931556 55.637333 259.811556 703.089778-1.820444L893.269333 790.300444zM384.113778 747.633778l474.510222 0 82.659556-394.979556L299.861333 354.304 384.113778 747.633778z" p-id="2919" fill="#1296db"></path><path d="M30.208 46.990222l203.605333 0 0 42.666667-203.605333 0 0-42.666667Z" p-id="2920" fill="#1296db"></path><path d="M715.832889 875.349333l101.660444 0 0 101.660444-101.660444 0 0-101.660444Z" p-id="2921" fill="#1296db"></path><path d="M424.277333 875.349333l101.660444 0 0 101.660444-101.660444 0 0-101.660444Z" p-id="2922" fill="#1296db"></path><path d="M498.915556 453.461333l243.996444 0 0 42.666667-243.996444 0 0-42.666667Z" p-id="2923" fill="#1296db"></path><path d="M498.915556 570.766222l243.996444 0 0 42.666667-243.996444 0 0-42.666667Z" p-id="2924" fill="#1296db"></path></svg>